<svg width="1077" height="674" viewBox="0 0 1077 674" fill="none" xmlns="http://www.w3.org/2000/svg">
<path d="M500.743 673.376C496.692 672.884 495.896 672.252 493.97 667.688L492.907 665.231L486.134 665.16C482.084 665.16 478.764 664.809 477.9 664.318C477.104 663.826 473.385 658.841 469.666 653.294L462.827 643.113H452.07C439.719 643.113 439.785 643.113 438.524 637.495C438.059 635.529 437.461 633.774 437.129 633.633C436.863 633.423 435.602 634.616 434.407 636.231C431.684 639.953 431.219 640.304 429.891 639.602C429.294 639.251 425.708 629.771 421.591 617.484L414.287 595.997L409.439 589.888C405.256 584.622 404.658 583.499 404.99 581.814C405.189 580.76 405.189 579.918 404.924 579.918C404.658 579.918 400.541 581.182 395.827 582.797C387.659 585.535 386.796 585.675 381.816 585.254C375.175 584.763 374.379 584.06 375.441 579.847C376.171 576.898 376.171 576.758 374.312 575.143C370.726 572.054 368.867 571.351 365.481 571.843C363.289 572.124 362.16 571.983 361.696 571.351C361.297 570.86 360.633 566.436 360.168 561.661C359.704 556.817 359.039 552.323 358.707 551.691C358.375 550.989 355.321 549.514 351.536 548.25L344.962 546.003L341.111 547.759L337.259 549.584L326.967 548.461C319.397 547.688 315.878 547.548 313.421 548.11C308.972 549.093 288.321 545.793 281.481 543.054C277.231 541.369 276.767 541.299 276.036 542.352C275.239 543.546 275.306 544.177 277.763 551.41C279.688 557.097 279.555 558.853 277.431 558.853C276.501 558.853 274.575 558.221 273.181 557.448C271.72 556.676 269.529 556.044 268.201 556.044C266.009 556.044 265.876 556.185 265.212 558.993C263.685 565.523 263.752 565.453 260.498 565.874C258.904 566.015 257.576 566.577 257.709 566.998C257.775 567.419 259.303 570.158 261.162 573.107C263.021 576.056 264.548 579.005 264.548 579.707C264.548 581.463 258.107 589.046 256.646 589.046C256.049 589.046 254.057 587.922 252.264 586.588C248.545 583.78 247.284 583.569 245.624 585.535C243.764 587.642 242.636 587.29 238.452 583.218C235.066 579.988 234.534 579.145 233.937 575.775C233.605 573.739 233.14 571.773 232.874 571.351C232.476 570.649 229.289 570.86 226.168 571.843C224.64 572.334 224.574 572.264 219.859 566.296L218.266 564.189L212.489 565.664C205.782 567.279 204.653 566.857 203.325 562.364C202.595 559.625 202.528 559.555 199.54 559.695L196.552 559.906L195.622 554.991C193.166 541.439 193.763 542.843 190.111 541.158C186.791 539.684 186.392 539.122 185.994 534.628C185.861 532.662 185.662 532.522 183.537 532.662C182.209 532.802 180.549 533.013 179.752 533.224C177.826 533.645 176.233 531.89 176.233 529.362C176.233 528.238 175.901 527.255 175.502 527.115C175.104 526.975 170.854 527.536 166.007 528.379C161.226 529.221 155.648 530.134 153.656 530.485C150.137 531.047 150.004 531.188 148.941 534.066C147.414 538.56 146.551 539.192 143.031 538.49C139.512 537.788 138.848 536.945 137.786 531.819C137.321 529.713 136.657 527.747 136.325 527.536C135.993 527.326 133.536 528.379 130.88 529.853C126.298 532.381 126.032 532.662 125.833 535.19C125.7 537.647 125.302 538.139 120.986 541.018C118.462 542.773 116.205 544.599 116.072 545.09C115.873 545.582 116.006 546.846 116.404 547.829C116.935 549.303 116.869 550.357 116.138 552.252C114.611 556.044 114.877 556.957 118.064 559.555C119.857 560.889 121.318 562.785 121.65 564.049C122.513 566.928 123.177 580.058 122.579 581.041C122.314 581.462 121.185 582.235 120.123 582.797C118.994 583.358 118.13 584.131 118.197 584.552C118.263 584.903 118.529 585.956 118.728 586.939C119.525 590.661 118.861 590.801 107.44 589.467L96.948 588.273L93.495 590.801C91.5693 592.135 87.9836 594.242 85.4603 595.365L80.9449 597.402L80.8785 604.985C80.8121 609.128 80.7457 612.919 80.6793 613.411C80.6129 613.832 79.0856 616.29 77.2928 618.818L73.9726 623.382V634.897C73.9726 643.253 73.707 646.623 73.1094 647.115C71.9805 648.098 63.2818 650.134 60.0945 650.134C56.2431 650.134 55.3799 648.449 55.3799 641.287V635.529L51.7277 629.701C48.0092 623.663 47.5443 622.118 48.7396 618.888C49.2044 617.413 49.0716 616.43 47.9428 614.113C46.0835 610.111 43.4938 606.6 42.4977 606.6C42.0329 606.6 40.1072 606.108 38.3144 605.547C34.463 604.353 34.5294 604.423 31.7405 593.961C30.1468 587.782 29.7484 587.01 26.6939 584.131C24.7018 582.235 21.5809 577.811 18.9248 573.247C15.007 566.506 14.2102 565.523 11.8861 564.681C10.4252 564.119 8.83156 563.347 8.43314 562.855C7.96833 562.364 7.4371 558.221 7.17149 552.533C6.90588 547.267 6.30826 541.79 5.77704 540.245C2.72251 531.117 1.59367 526.834 0.796833 521.989L0 516.512L1.79287 514.897C4.31618 512.58 6.17545 512.721 8.30034 515.459L10.0932 517.706L12.7493 515.459C15.2726 513.282 15.671 513.212 19.124 513.633L22.8425 514.055V510.544C22.8425 505.699 23.6394 505.137 29.018 506.12C34.3966 507.103 34.2638 507.103 33.4006 505.418C32.4045 503.452 33.0686 501.697 35.7911 499.169C39.6424 495.658 44.689 496.29 49.5364 500.994C50.9309 502.329 52.3917 503.382 52.7238 503.241C52.9894 503.101 54.7158 500.994 56.4423 498.537C59.2312 494.605 60.1609 493.832 63.3482 492.709C65.3403 492.007 67.0003 491.445 67.0667 491.445C67.3988 491.375 68.6604 486.811 68.6604 485.617C68.6604 484.845 67.3324 481.966 65.6723 479.227C62.9498 474.593 62.6842 473.68 62.0865 467.361C61.6881 463.639 61.2233 460.269 61.0241 459.848C60.8249 459.497 59.0984 458.443 57.1727 457.53C54.251 456.126 53.3214 455.143 51.1965 451.422C49.802 448.964 48.7396 446.647 48.7396 446.226C48.7396 445.874 49.3372 443.417 50.134 440.749L51.5949 435.974L50.0676 430.848C49.2708 428.04 48.6732 425.09 48.806 424.318C48.9388 423.616 50.2669 422.282 51.7277 421.509C53.7198 420.386 54.6494 419.333 55.5127 416.945C57.3719 411.749 57.1727 411.398 53.1222 411.398C48.9388 411.398 48.2084 410.696 47.9428 406.483C47.7435 403.534 47.5443 403.183 44.8882 401.919C41.7673 400.374 41.1033 399.251 42.1657 397.215C44.4234 392.65 51.5949 381.907 52.3253 381.907C53.5206 381.907 54.5166 383.241 55.0479 385.629C55.5791 387.876 57.3719 389.069 59.7624 388.789C61.4889 388.578 61.4889 388.437 61.6217 382.961C61.6881 378.677 62.2193 375.518 63.8794 369.971C66.0043 363.089 66.4027 362.317 70.3869 357.964C72.711 355.436 74.6367 352.697 74.6367 351.925C74.6367 351.223 72.9766 346.308 70.9181 341.112C66.1371 328.964 66.3363 329.807 68.1292 327.63C68.9924 326.507 71.5821 322.223 73.9062 317.94C78.5544 309.374 80.3473 307.478 83.6674 307.478C85.5931 307.478 86.1907 306.986 88.6476 303.195C91.3701 299.192 91.7021 298.911 96.4831 297.367C99.2721 296.454 103.19 295.26 105.315 294.769C109.1 293.926 109.166 293.926 114.81 296.594C117.931 297.999 120.587 299.052 120.787 298.911C120.919 298.701 120.455 296.594 119.724 294.207C118.462 290.345 118.396 289.713 119.259 288.309C119.99 287.115 120.056 286.413 119.525 285.5C118.064 283.113 119.79 282.691 130.481 282.832C138.914 282.902 142.434 282.621 150.668 281.076C156.113 280.093 160.894 278.97 161.226 278.619C161.558 278.268 162.355 274.617 163.019 270.474C163.683 266.331 164.48 262.68 164.812 262.329C165.144 261.978 166.87 261.346 168.663 260.854C171.85 260.012 171.917 259.871 175.237 253.481C178.424 247.162 178.69 246.811 183.67 243.651C189.115 240.14 192.103 236.489 196.751 227.501L199.142 222.937L204.72 221.603C207.84 220.901 210.497 220.199 210.629 220.058C210.762 219.918 211.493 216.828 212.157 213.247C212.821 209.666 213.551 206.156 213.75 205.453C214.215 203.979 216.805 202.504 222.648 200.398C226.898 198.923 227.296 198.853 236.327 199.766C241.44 200.257 246.221 200.679 247.018 200.679C249.541 200.749 250.604 202.574 250.604 206.928C250.604 211.141 249.807 212.686 247.749 212.686C246.022 212.686 246.487 214.09 251.002 223.429C254.522 230.731 254.654 231.293 255.518 239.93C256.049 244.845 257.045 250.673 257.842 252.99C258.572 255.237 259.17 258.256 259.17 259.66C259.17 264.435 256.713 278.759 255.783 279.742C254.787 280.796 245.292 283.604 242.636 283.604C239.183 283.604 231.081 279.602 228.757 276.793C222.715 269.491 218.664 260.363 216.938 250.251C215.875 243.721 215.278 242.738 213.817 245.126C212.821 246.67 212.821 247.513 213.684 254.113C214.282 258.186 214.68 262.048 214.68 262.68C214.746 263.382 213.02 265.208 210.829 266.893C208.704 268.578 205.052 272.37 202.727 275.389L198.544 280.936L200.071 288.73C202.196 299.684 202.927 300.807 206.048 297.367C207.309 295.892 207.376 295.401 206.778 294.137C205.915 292.522 206.38 285.43 207.442 282.411C208.106 280.515 214.946 277.917 216.074 279.11C216.473 279.532 217.07 282.972 217.469 286.764C218.133 293.154 218.399 293.926 220.59 296.665C223.578 300.526 224.508 300.878 225.437 298.49C229.089 289.222 228.824 289.573 233.074 288.379C235.862 287.607 238.983 287.396 243.964 287.607C253.924 287.958 253.393 287.747 255.518 293.364C257.576 299.052 258.174 299.263 262.224 296.313L264.88 294.347L264.615 289.292L264.416 284.306L268.599 282.2C274.31 279.462 277.165 275.74 277.763 270.333C278.294 265.067 279.622 264.857 284.602 269.14C288.188 272.299 288.785 273.423 290.977 280.515C291.707 282.972 290.844 285.36 287.922 288.8C286.129 290.977 285.93 290.977 282.212 289.081C279.555 287.747 279.024 287.677 277.099 288.519L274.974 289.432L275.438 293.645C276.036 299.122 276.501 300.035 279.555 300.948C282.012 301.79 282.079 301.79 285.93 297.928L289.781 293.996L310.831 294.277C332.943 294.558 335.599 294.909 335.599 297.577C335.599 298.631 334.47 299.614 331.748 301.088C329.623 302.212 327.365 303.616 326.635 304.178C325.307 305.231 325.307 305.301 326.768 306.846C328.162 308.32 328.428 308.391 331.084 307.548C336.33 305.863 338.123 305.863 342.04 307.408C345.161 308.601 347.087 308.812 352.2 308.672L358.508 308.531V311.972C358.508 316.395 359.703 317.378 362.891 315.412C365.082 314.078 365.149 313.938 365.215 309.163C365.281 302.563 365.149 302.914 368.07 301.509L370.66 300.246L378.031 304.739L385.401 309.163L394.499 323.768C399.479 331.773 403.795 338.373 404.061 338.373C404.26 338.373 404.99 337.531 405.588 336.547C406.65 334.862 406.65 334.652 405.588 332.966C404.791 331.562 404.592 330.298 404.924 327.209L405.389 323.206L402.666 320.889C399.479 318.221 399.28 316.606 401.936 314.359C403.861 312.674 407.314 306.284 407.314 304.318C407.314 303.686 406.982 302.633 406.517 301.931C405.986 301.018 406.053 299.754 406.916 296.735C407.978 292.803 408.111 292.662 413.623 289.081C418.802 285.781 419.864 284.658 424.977 277.425C428.032 273.072 430.954 269.28 431.418 269.14C431.883 268.929 435.403 269.982 439.188 271.457C444.035 273.353 446.16 274.546 446.359 275.389C446.492 276.091 446.226 278.759 445.828 281.357C445.164 285.641 444.633 286.694 440.648 291.96L436.266 297.788L437.461 302.914L438.723 308.04L436.93 313.025C436 315.834 435.137 318.923 435.137 319.976C435.137 321.03 434.141 324.962 432.813 328.824C431.551 332.615 430.555 336.337 430.555 337.039C430.555 337.741 431.286 340.339 432.282 342.797L434.008 347.291L431.418 352.768C430.024 355.717 427.368 359.859 425.575 361.825C423.716 363.862 420.993 367.021 419.532 368.777C417.009 371.866 416.611 372.077 413.556 372.077C411.763 372.077 408.642 371.586 406.65 371.024C404.658 370.462 402.932 370.111 402.799 370.251C402.732 370.322 404.061 371.866 405.853 373.622C410.369 378.045 413.622 378.607 419.665 375.939C422.72 374.535 424.645 373.13 426.372 370.883C427.7 369.128 430.157 366.741 431.817 365.617C436.465 362.317 436.531 362.177 436.531 353.048V344.763L440.184 343.288C444.5 341.603 446.359 341.533 449.414 342.867C451.738 343.92 452.667 346.027 454.128 353.61C454.394 355.295 454.925 355.927 455.921 355.927C457.116 355.927 457.249 355.646 456.851 352.627C456.585 350.872 456.452 348.835 456.452 348.133C456.452 347.15 452.535 343.499 448.55 340.901C448.019 340.55 445.562 340.058 443.039 339.777C440.516 339.426 438.059 338.794 437.528 338.373C436.731 337.671 436.531 335.916 436.531 331.492C436.531 325.594 436.531 325.383 439.52 320.327L442.574 315.131L440.914 307.759C439.719 302.493 439.387 299.824 439.852 298.631C440.516 296.875 445.297 291.539 449.414 288.168C451.671 286.273 452.003 285.641 452.269 282.2C452.534 279.813 453.066 277.987 453.73 277.495C455.257 276.232 458.843 276.372 459.374 277.706C460.37 280.585 459.64 286.343 457.382 293.083C453.663 303.897 453.597 303.124 459.108 306.284C461.698 307.759 464.022 308.812 464.221 308.531C464.487 308.32 462.96 306.284 460.968 304.107C458.909 301.861 457.116 299.543 456.851 298.841C456.253 296.945 458.776 292.1 460.702 291.609C461.632 291.398 462.694 291.398 463.159 291.679C463.757 292.1 463.823 291.89 463.425 290.907C461.764 286.834 462.096 286.132 466.28 284.026C468.471 282.902 470.729 282.2 471.326 282.411C471.924 282.691 472.854 283.955 473.385 285.219C473.85 286.553 474.846 287.747 475.576 287.958C476.24 288.168 478.365 290.345 480.291 292.803C486.931 301.299 487.064 301.439 487.728 300.246C488.525 298.701 487.662 296.594 484.076 291.539C482.416 289.222 480.955 286.694 480.822 285.921C480.49 283.113 481.818 271.667 482.615 270.544C483.279 269.561 485.935 269.069 496.626 268.016C503.864 267.314 509.973 266.542 510.172 266.331C510.305 266.12 509.973 264.505 509.375 262.75C508.246 259.59 508.246 259.45 509.574 257.062C511.699 253.201 517.808 244.845 520.265 242.387C521.527 241.194 525.777 238.666 529.761 236.77C535.073 234.312 537.331 232.838 538.061 231.433C538.792 230.17 540.784 228.765 544.569 226.94C550.478 224.201 551.475 224.271 552.338 227.782C552.869 229.959 553.799 229.959 558.38 227.572C562.033 225.676 562.033 225.676 561.634 223.148C561.169 220.199 561.9 219.356 565.552 218.654L568.142 218.163L567.677 213.879L567.278 209.526L571.263 203.066C576.708 194.149 579.563 192.885 586.734 196.044C589.59 197.308 589.922 198.923 587.93 201.591C586.07 204.049 586.203 204.26 589.125 204.26C591.98 204.26 593.242 205.243 593.242 207.56C593.242 209.596 593.507 209.596 596.562 207.068C598.953 205.032 599.285 204.962 606.058 204.962H613.03L617.877 209.245C620.6 211.562 623.189 214.511 623.654 215.705C624.252 217.109 624.584 220.69 624.65 225.676C624.65 234.312 624.584 234.663 618.873 243.581C617.014 246.46 613.827 252.007 611.835 255.869C609.776 259.731 607.253 264.365 606.257 266.191L604.398 269.561H605.925C607.054 269.561 609.71 267.384 614.491 262.61C621.861 255.167 627.771 250.603 629.763 250.603C630.494 250.603 631.556 251.375 632.154 252.358C633.482 254.535 634.212 254.535 635.142 252.358C635.607 251.305 637.001 250.181 638.661 249.549C643.974 247.583 654.2 244.985 655.262 245.407C655.926 245.687 656.324 246.67 656.324 248.075C656.324 250.462 657.32 252.007 658.914 252.007C660.176 252.007 674.187 245.968 675.05 245.055C675.448 244.634 675.116 243.089 674.32 241.123C672.527 236.91 672.527 235.646 674.32 232.276L675.78 229.538H681.557C687.135 229.538 687.334 229.467 690.057 226.94C692.248 224.974 693.178 224.552 694.174 225.044C695.236 225.535 701.877 231.574 711.904 241.123C714.161 243.23 714.427 245.687 712.368 245.687C710.908 245.687 711.24 246.811 713.165 248.426C715.489 250.392 729.367 255.096 729.301 253.903C729.301 253.833 728.172 249.971 726.711 245.336C724.786 239.157 724.321 236.7 724.852 235.998C725.383 235.366 727.375 235.155 732.156 235.295L738.797 235.506L739.925 231.995C741.187 228.063 742.914 226.729 746.699 226.729C748.823 226.729 749.753 226.097 752.874 222.797C754.933 220.62 756.526 218.654 756.526 218.443C756.526 218.163 754.733 216.618 752.542 214.933C750.351 213.318 748.558 211.422 748.558 210.72C748.558 210.088 748.292 207.279 747.96 204.611C747.695 201.872 747.695 199.134 748.027 198.502C748.359 197.8 750.948 195.904 753.737 194.219C769.541 184.74 774.986 181.088 778.041 178.209C782.689 173.786 783.685 173.364 788.665 173.364C793.778 173.364 795.106 174.347 793.911 177.577C793.512 178.771 793.38 179.754 793.645 179.895C794.044 180.175 809.316 176.735 811.242 175.962C811.773 175.752 814.761 170.205 817.882 163.745L823.526 151.878L829.503 148.578L835.479 145.208L839.994 145.98C843.846 146.612 844.908 147.103 847.033 149.28L849.49 151.878L852.345 149.772C854.736 147.946 855.4 146.893 856.861 142.399C858.853 136.22 858.454 136.992 864.829 127.724C868.88 121.896 870.008 119.649 870.407 117.051C870.672 115.225 871.204 113.47 871.668 113.119C872.067 112.697 875.586 112.206 879.504 111.925C883.355 111.644 886.808 111.223 887.207 110.942C888.203 110.24 888.668 105.535 887.871 104.623C887.472 104.201 885.281 103.85 883.023 103.85C879.238 103.85 878.641 103.639 875.985 101.322C874.391 99.918 872.864 98.2328 872.532 97.4604C872.067 96.4774 873.594 93.1772 879.039 82.9958C887.008 68.0397 888.336 66.495 903.608 53.7858C915.76 43.7449 937.739 28.0164 939.798 28.0164C940.661 28.0164 943.317 28.6483 945.707 29.4909C948.696 30.6144 950.223 30.825 951.02 30.3335C953.078 28.9994 952.481 28.227 949.094 27.7355C947.235 27.5249 945.243 26.9631 944.778 26.5418C943.251 25.2077 943.649 22.1182 945.508 20.2926C946.438 19.3797 947.434 17.3435 947.832 15.7285C949.227 9.97074 949.758 9.26857 956.465 4.56407C960.117 1.96606 963.703 0 964.499 0C965.296 0 967.554 1.19368 969.48 2.73844C973.464 5.89818 973.663 6.53013 972.069 12.99C971.472 15.1668 971.206 17.1328 971.339 17.3435C971.538 17.5541 975.19 18.2563 979.44 19.0287C989.732 20.8543 990.065 20.9947 990.994 24.646C991.725 27.3142 991.658 27.9461 990.197 30.7548C988.936 33.423 988.205 34.055 985.881 34.6167C983.623 35.2487 982.627 36.1615 979.905 39.9532C976.784 44.3768 976.585 44.5172 973.198 44.8683C968.218 45.3598 966.558 47.3961 965.628 53.6454C965.23 56.3136 964.632 58.9818 964.234 59.4733C963.703 60.1755 962.242 60.2457 958.39 59.8946C952.813 59.4031 952.082 59.7542 953.078 62.6331C953.609 64.1076 954.273 64.4587 957.195 64.8098C968.417 66.2843 968.019 65.9333 970.409 76.3253L971.937 82.7852L969.745 85.6641C968.019 87.9812 967.753 88.6834 968.484 89.1749C969.812 90.0877 969.878 90.0175 974.261 86.928C978.842 83.698 979.174 83.6278 984.686 84.8215C988.338 85.6641 989.002 85.5939 993.517 83.9789C996.24 82.9958 998.962 82.3639 999.626 82.5746C1001.02 82.9256 1007.59 88.9642 1007.59 89.8771C1007.59 90.2281 1005.34 93.0368 1002.61 96.1263C999.826 99.2159 997.634 102.376 997.634 103.148C997.634 104.552 1002.35 124.283 1005.54 136.501C1011.11 157.355 1012.31 161.006 1014.97 164.938C1016.49 167.326 1017.42 169.362 1017.16 169.994C1016.82 170.907 1007.13 174.769 1005.07 174.769C1003.61 174.769 1002.95 176.875 1002.22 183.195L1001.49 189.865L1003.54 194.57C1004.67 197.168 1005.6 199.766 1005.6 200.398C1005.6 202.223 1003.61 202.434 1000.89 200.749C999.427 199.906 997.966 199.345 997.634 199.415C997.302 199.555 997.568 201.03 998.298 202.715C1000.09 206.928 999.959 208.332 997.236 211.913C995.974 213.598 994.978 215.354 994.978 215.775C994.978 216.267 996.572 219.286 998.564 222.516C1000.56 225.816 1003.68 231.012 1005.54 234.172C1007.4 237.332 1009.32 240.281 1009.85 240.702C1011.18 241.896 1012.31 240.983 1011.84 239.087C1011.38 237.121 1012.38 236.208 1016.09 235.155C1020.14 234.031 1021.54 234.593 1023.73 238.315C1026.45 242.809 1030.57 244.985 1036.75 244.985C1040.8 244.985 1041.39 245.126 1041.79 246.39C1042.32 248.145 1041.53 253.411 1040.6 254.675C1039.8 255.658 1041.79 263.452 1043.05 264.505C1043.45 264.857 1045.91 265.699 1048.63 266.401C1054.14 267.806 1055.01 268.718 1055.67 274.195C1056.14 277.566 1056 277.987 1054.08 280.304C1052.22 282.551 1052.02 283.183 1052.22 286.553L1052.42 290.205L1057.06 293.575C1059.59 295.401 1062.05 297.437 1062.51 298.069C1063.04 298.911 1063.37 301.931 1063.37 306.846V314.429L1066.69 318.432C1068.55 320.679 1070.88 324.119 1071.94 326.015C1074 329.947 1077.58 344.763 1076.92 346.869C1076.06 349.889 1072.94 348.554 1042.85 332.615L1013.37 316.957L1006.33 308.812L999.228 300.737L997.966 294.207C996.771 287.747 996.705 287.607 993.584 285.079C989.932 282.13 989.732 281.428 991.459 274.687L992.588 270.193L989.865 261.627C988.338 256.922 985.217 247.513 982.959 240.772C977.846 225.325 977.78 225.254 977.116 215.284C976.452 205.664 976.718 206.015 968.085 199.625C962.109 195.202 961.578 194.289 963.437 190.919C964.499 188.812 964.699 187.127 963.703 187.759C962.707 188.391 959.718 194.851 959.785 196.325C959.851 197.027 961.976 199.415 964.499 201.662L969.148 205.804L968.749 209.034C968.417 211.281 968.816 215.143 970.011 221.322C971.87 231.293 972.069 233.4 971.007 234.102C970.609 234.383 968.284 234.383 965.894 234.102C961.843 233.61 961.312 233.329 958.125 230.17C954.074 226.167 954.738 225.816 949.227 234.593C947.367 237.613 945.84 240.842 945.84 241.825C945.84 244.634 954.473 273.844 956 276.372C957.66 279.04 957.926 279.11 960.383 277.215C962.707 275.389 964.234 276.021 966.093 279.672C967.488 282.481 967.82 281.779 962.242 288.73C960.25 291.188 959.32 293.294 958.058 298.42C954.34 313.025 954.937 312.253 948.43 310.989C944.313 310.146 943.715 309.444 944.579 306.565C944.844 305.371 944.977 304.248 944.844 304.107C944.645 303.897 941.79 305.442 938.47 307.548C934.286 310.146 932.56 311.621 932.759 312.393C932.958 312.955 933.622 314.851 934.286 316.606C935.747 320.679 935.282 321.942 931.962 322.996C929.439 323.768 929.24 323.979 929.107 326.717C928.908 329.526 928.841 329.596 925.056 331C921.404 332.264 921.271 332.475 921.138 334.862C921.138 336.196 921.138 337.53 921.138 337.811C921.205 338.022 919.611 338.724 917.686 339.356C914.365 340.339 913.768 340.971 907.393 349.046C903.675 353.821 900.686 358.315 900.686 359.087C900.686 359.859 901.151 361.264 901.682 362.247C903.011 364.775 902.878 367.232 901.018 372.428L899.358 376.992L901.815 381.205L904.206 385.488L902.014 394.406L899.89 403.323L900.952 413.294L902.081 423.335L899.757 434.71C896.37 451 896.37 451.422 897.499 451.422C898.03 451.422 900.554 449.807 903.21 447.911C905.799 445.945 908.256 444.4 908.721 444.4C909.186 444.4 910.182 445.032 910.979 445.804C912.373 447.209 912.506 447.209 916.689 446.015C919.08 445.383 921.404 445.032 922.002 445.243C922.533 445.453 923.33 446.998 923.795 448.613C924.658 451.422 924.724 451.492 925.919 450.298C927.646 448.683 927.58 447.419 925.587 444.049C923.197 439.976 923.463 438.712 927.115 435.061C930.9 431.34 933.954 430.427 938.337 431.621C939.93 432.112 944.18 432.463 947.832 432.463H954.473V430.286C954.473 429.093 954.871 427.267 955.469 426.144C956.797 423.335 956.133 422.141 952.414 420.807C946.836 418.841 946.239 414.769 950.953 410.907C952.547 409.643 954.207 408.8 954.672 408.941C955.137 409.151 956.797 411.047 958.457 413.224C960.05 415.401 964.632 420.175 968.484 423.756C972.601 427.548 976.12 431.48 976.784 432.955C978.112 435.834 977.846 435.623 997.966 447.349C1018.42 459.286 1020.28 460.55 1020.08 462.165C1019.88 463.148 1018.48 464.131 1014.9 465.746C1012.11 466.939 1009.85 468.414 1009.72 468.976C1009.65 469.537 1011.31 474.242 1013.5 479.508C1016.43 486.53 1017.89 489.339 1019.35 490.392C1020.41 491.164 1025.66 493.341 1030.97 495.166C1040.4 498.396 1040.8 498.677 1043.39 501.907C1046.04 505.278 1046.71 507.103 1045.44 507.946C1045.11 508.157 1042.26 507.946 1039.07 507.525C1035.95 507.103 1033.23 506.893 1032.96 507.173C1032.76 507.384 1033.56 509.701 1034.69 512.37C1036.88 517.355 1037.28 519.812 1036.08 520.585C1035.35 521.076 1026.98 516.793 1023.8 514.195C1021.01 512.018 1013.64 501.416 1010.58 495.096C1008.46 490.813 1007.66 489.83 1005.27 488.707C1003.08 487.653 1000.49 484.774 992.455 474.523C978.046 455.915 978.71 456.547 972.8 453.879L967.554 451.492L967.952 454.722C968.683 460.339 973.663 470.029 979.573 477.402C982.694 481.193 986.944 487.653 989.6 492.498L994.115 500.924L994.912 514.616C995.443 524.938 996.041 529.994 997.302 535.33C998.962 542.141 999.029 543.265 999.427 571.492L999.759 600.702L996.97 607.302C995.443 610.953 993.252 616.009 992.123 618.537L989.998 623.101L982.362 625.558C978.112 626.963 974.261 628.227 973.796 628.367C973.198 628.648 972.733 630.614 972.401 633.984C971.737 640.304 969.015 647.326 967.156 647.326C966.492 647.326 965.097 646.974 964.035 646.623C962.972 646.272 960.847 645.64 959.32 645.219C955.535 644.236 955.336 642.902 958.324 639.742C959.718 638.338 961.511 635.67 962.308 633.844L963.835 630.544L960.05 624.224C957.394 619.66 955.137 616.852 952.082 614.254C949.758 612.217 947.7 610.181 947.567 609.69C947.367 609.198 948.098 605.898 949.227 602.387C951.484 595.225 951.75 595.014 958.058 594.172C963.105 593.61 963.437 593.259 962.574 589.608C962.175 587.922 961.644 583.709 961.511 580.269C961.179 574.651 960.781 572.966 957.793 565.523C954.805 558.08 954.473 556.676 954.805 553.797C955.203 550.918 954.937 550.146 952.68 546.284C951.285 543.897 949.957 542.001 949.692 542.001C949.227 542.001 942.188 553.516 940.395 557.308C939.731 558.712 937.009 562.364 934.286 565.313L929.505 570.79H925.787H922.134L916.955 564.751C912.838 559.976 911.51 558.853 910.448 559.204C909.717 559.485 906.331 559.274 903.011 558.783C896.968 557.94 896.769 557.94 892.585 559.695C890.261 560.678 886.343 562.013 883.82 562.644C879.637 563.768 879.172 563.768 877.645 562.715C876.184 561.661 866.755 552.744 848.959 535.471C845.439 532.03 841.854 528.941 840.99 528.589C838.666 527.606 835.413 527.817 833.686 529.081C832.424 529.994 831.096 530.134 825.585 529.713L819.011 529.221L814.496 532.171C804.336 538.911 798.426 545.582 798.426 550.146C798.426 550.778 800.352 553.446 802.742 556.114C805.067 558.783 807.059 561.591 807.059 562.364C807.059 563.136 806.262 565.383 805.399 567.279C803.805 570.439 803.738 571.492 803.738 580.479V590.31L805.996 593.189C807.258 594.804 808.121 596.489 807.988 596.98C807.789 597.472 806.063 598.736 804.137 599.719C801.016 601.334 800.418 601.966 799.09 605.406C797.43 609.69 796.633 610.251 790.06 611.445C786.806 612.077 785.411 612.007 782.49 611.094L778.904 609.97L776.181 613.13C773.127 616.641 773.459 616.571 766.354 614.324C764.959 613.902 762.569 613.622 761.042 613.762C757.987 613.973 757.721 614.324 752.343 624.084C750.616 627.173 748.691 629.069 741.652 634.546L733.02 641.217L721.067 642.832C704.334 645.079 703.935 645.008 700.416 641.919C694.307 636.653 675.648 634.827 670.136 638.97C668.875 639.883 666.617 641.638 665.023 642.902C663.496 644.166 661.637 645.219 660.973 645.219C660.309 645.219 656.391 644.376 652.207 643.393C647.028 642.2 644.306 641.217 643.575 640.304C642.977 639.532 641.849 636.723 641.052 633.984C640.321 631.316 639.458 628.929 639.126 628.788C638.263 628.156 614.292 622.75 612.698 622.75C611.635 622.75 610.042 624.505 606.722 629.21C604.265 632.791 602.273 636.161 602.339 636.793C602.405 637.355 603.601 641.076 605.062 645.079C606.522 649.011 607.585 652.802 607.386 653.364C607.186 653.926 604.929 655.471 602.472 656.805L597.89 659.262H583.945C570.2 659.262 570.001 659.192 569.071 657.647C568.54 656.805 567.942 655.049 567.677 653.856C567.411 652.592 566.88 651.258 566.349 650.836C565.884 650.485 561.833 649.432 557.318 648.66L549.084 647.185L537.264 653.364C526.109 659.262 525.445 659.684 525.046 661.86C524.847 663.124 524.382 664.318 524.05 664.599C523.718 664.809 520.597 665.722 517.012 666.635C510.902 668.18 508.446 669.654 507.45 672.463C507.051 673.516 504.86 673.797 500.743 673.376ZM959.121 441.24C959.121 441.03 958.324 439.555 957.328 438.01C955.867 435.693 955.469 435.342 954.937 436.255C954.141 437.87 954.871 439.836 956.598 440.749C958.324 441.591 959.121 441.732 959.121 441.24ZM476.639 293.435C475.643 292.241 474.447 291.328 474.115 291.328C473.717 291.328 474.447 292.381 475.643 293.786C476.904 295.12 478.033 296.033 478.232 295.822C478.432 295.682 477.701 294.558 476.639 293.435ZM456.452 284.658C456.519 283.885 456.519 282.621 456.452 281.849C456.319 280.445 456.319 280.445 455.788 281.849C454.991 283.745 454.925 288.519 455.722 287.115C456.054 286.483 456.386 285.43 456.452 284.658ZM15.7374 306.565C12.4837 302.773 0.664027 284.517 0.664027 283.253C0.664027 281.989 1.12885 281.779 5.90984 281.287C12.6165 280.585 13.8782 280.936 15.671 283.955C17.4639 286.834 17.6631 286.834 20.12 284.868C21.1825 284.096 22.5105 283.534 22.9753 283.745C23.905 284.166 25.8307 289.994 28.5532 300.246C29.35 303.335 29.4828 304.95 29.018 305.442C28.2212 306.284 21.2489 308.11 18.792 308.11C17.7959 308.18 16.4679 307.478 15.7374 306.565ZM351.669 278.689C347.552 275.389 345.56 273.212 345.228 271.878C344.962 270.825 344.032 266.261 343.169 261.697C341.708 253.903 341.642 253.271 342.638 249.76C343.966 244.985 344.298 244.564 348.083 243.23C350.474 242.387 352.598 240.632 357.18 235.857C362.094 230.591 363.422 229.538 365.149 229.538C366.809 229.538 367.605 228.906 369.266 226.518C370.527 224.693 374.976 220.62 380.355 216.477C385.335 212.615 390.581 208.613 391.975 207.49C395.163 205.032 403.928 203.277 420.927 201.802C428.098 201.17 433.743 200.328 436.531 199.415C441.711 197.659 443.703 197.589 445.695 199.064C447.089 200.117 447.222 200.608 446.957 204.049C446.691 207.349 446.359 208.192 443.836 210.93C442.242 212.615 440.184 214.16 439.188 214.371C436.996 214.933 429.294 215.986 420.927 216.899C414.087 217.671 410.568 219.216 402.865 224.693C401.338 225.816 397.885 227.712 395.229 229.046C392.506 230.38 387.858 233.54 384.737 236.278C381.616 238.947 377.566 242.317 375.773 243.721C372.519 246.179 366.609 252.849 363.621 257.343C362.36 259.239 362.16 260.503 362.16 266.05C362.16 269.631 362.492 274.617 362.891 277.074C363.754 282.34 363.156 283.604 359.77 283.604C358.11 283.604 356.251 282.481 351.669 278.689ZM738.133 196.044C737.336 194.5 736.539 184.88 737.07 183.476C737.269 182.914 737.734 182.493 738 182.493C738.332 182.493 739.726 181.65 741.121 180.667C743.246 179.052 744.175 178.841 747.628 179.122C752.077 179.403 755.929 181.58 755.929 183.897C755.929 185.161 742.25 196.395 739.859 197.027C739.261 197.238 738.465 196.817 738.133 196.044ZM558.712 195.132C557.982 194.64 557.916 193.306 558.513 187.618C558.912 183.827 559.111 180.597 558.978 180.456C558.912 180.386 558.181 180.597 557.451 181.018C556.388 181.65 554.463 181.439 549.018 180.105C545.166 179.122 541.647 177.999 541.116 177.577C539.456 176.173 537.264 167.396 537.729 164.307C538.128 161.989 537.995 161.287 537.132 161.006C536.6 160.725 536.135 160.164 536.135 159.672C536.135 159.11 535.073 157.425 533.811 155.81C532.483 154.195 531.487 152.721 531.487 152.51C531.487 151.246 534.343 140.433 535.073 138.958C536.534 136.15 541.116 131.726 542.444 132.007C543.041 132.147 545.166 135.026 547.092 138.467C550.213 143.874 550.678 145.208 550.877 148.929C551.076 153.423 551.408 153.914 554.994 154.757C556.056 154.968 557.916 156.232 559.111 157.496C561.103 159.602 561.369 160.304 561.369 163.815C561.369 166.062 561.634 167.747 562.033 167.747C562.431 167.747 563.825 166.905 565.154 165.992C568.341 163.675 568.938 163.745 570.532 166.624C571.528 168.449 572.192 168.941 573.255 168.66C573.985 168.449 575.047 168.66 575.645 169.151C576.907 170.275 581.953 181.51 581.953 183.265C581.953 184.88 581.621 185.091 571.661 189.936C559.708 195.763 559.708 195.764 558.712 195.132ZM713.165 180.386C710.642 179.684 708.318 178.771 707.919 178.35C707.521 177.929 706.724 174.839 706.06 171.469C705.396 168.028 704.666 164.307 704.466 163.113C704.134 161.498 704.267 160.585 705.197 159.672C706.193 158.619 707.122 158.479 710.974 158.83L715.556 159.251L715.091 157.004C714.028 152.019 714.028 151.948 718.411 151.527C720.602 151.246 724.254 150.263 726.512 149.21C728.77 148.227 731.027 147.384 731.559 147.384C734.746 147.384 737.668 157.074 736.141 162.551C735.211 165.781 726.911 177.437 723.79 180.035C721.2 182.071 719.407 182.141 713.165 180.386ZM739.129 153.493C737.601 152.159 734.547 146.682 734.812 145.559C734.879 144.997 738.996 142.539 743.91 140.012C753.405 135.167 757.257 134.254 758.452 136.641C759.182 138.116 757.522 148.718 756.327 149.982C755.862 150.474 752.675 151.527 749.222 152.299C745.769 153.072 742.316 153.844 741.586 154.055C740.789 154.195 739.726 153.985 739.129 153.493ZM440.316 133.762C439.453 133.06 438.457 132.92 436.664 133.411C435.27 133.692 433.344 133.973 432.348 133.973L430.489 134.043L430.555 129.268C430.622 126.67 430.29 122.106 429.825 119.157C429.094 114.734 429.094 113.54 429.825 112.627C430.29 112.065 431.02 111.574 431.418 111.574C431.75 111.574 432.614 111.012 433.278 110.38C434.473 109.327 442.375 106.659 444.566 106.659C445.695 106.659 449.148 111.574 449.148 113.259C449.148 113.891 448.285 114.874 447.289 115.576C446.293 116.208 445.297 117.051 445.031 117.402C444.234 118.666 445.363 120.702 447.621 122.177L449.945 123.721L454.925 122.387C458.511 121.474 460.171 121.334 460.968 121.826C462.429 122.809 464.686 128.637 464.155 130.111C463.624 131.656 456.585 134.886 454.792 134.465C453.995 134.254 452.534 133.271 451.605 132.358L449.878 130.673L448.019 132.709C446.027 134.956 442.441 135.448 440.316 133.762ZM405.521 120.421C401.471 117.472 401.072 115.576 404.061 113.891L406.318 112.697L404.326 112.276C403.197 112.065 402.201 111.363 402.135 110.731C401.736 108.836 404.525 103.85 406.517 102.937C407.447 102.446 408.642 101.603 409.041 101.041C409.638 100.199 410.701 100.48 416.279 102.797C423.118 105.676 425.575 107.431 424.911 109.187C424.712 109.819 424.579 112.065 424.513 114.242C424.513 116.419 424.313 118.596 423.981 119.157C423.517 119.93 412.162 122.809 409.638 122.809C409.174 122.809 407.314 121.755 405.521 120.421ZM872.332 50.275C867.95 45.2896 867.485 44.2364 867.485 39.5319C867.485 34.2656 867.883 32.9315 869.544 32.9315C870.208 32.9315 872.465 31.6676 874.59 30.1229C879.039 26.8227 880.5 26.612 881.43 29.0696C883.023 33.4933 881.297 49.0813 878.973 51.5389C877.313 53.2943 874.524 52.8028 872.332 50.275Z" fill="#E5E5E5" fill-opacity="0.7"/>
</svg>
